<?xml version="1.0" encoding="utf-8"?>
<!-- Generator: Adobe Illustrator 26.0.3, SVG Export Plug-In . SVG Version: 6.00 Build 0)  -->
<svg version="1.1" id="Layer_1" xmlns="http://www.w3.org/2000/svg" xmlns:xlink="http://www.w3.org/1999/xlink" x="0px" y="0px"
	 viewBox="0 0 546 545.2" style="enable-background:new 0 0 546 545.2;" xml:space="preserve">
<style type="text/css">
	.st0{fill:#FFFFFF;}
</style>
<g>
	<path class="st0" d="M186,0c16.6,18.5,20.3,44.8,8.3,65.8c-3.5,6.2-8.4,12.1-14,16.3c-13.4,10.2-27.6,19.3-41.4,28.9
		c-12.9,9-25,19.1-35.9,30.5c-22.3,23.1-39.5,49.5-51,79.5c-12.5,32.6-17.7,66.2-15.4,101c2.7,40.5,15,77.8,36.8,111.9
		c20.8,32.5,48.1,58.6,81.6,77.9c27.7,16,57.4,25.9,89.3,29.7c30.6,3.7,60.8,1.6,90.6-6.4c33.7-9.1,63.9-25,90.5-47.4
		c26.8-22.5,47.5-49.7,62.4-81.4c11.9-25.4,18.9-52.1,21.3-79.9c2.6-29.5-0.5-58.6-8.9-87.1c-9.8-33.1-26.1-62.5-48.7-88.5
		c-16.7-19.2-36.1-35-58.1-47.9c-14.6-8.6-28.8-18.1-40-31.2c-10.4-12.2-12.8-26.5-11-41.8c0.9-7.6,2.4-15.1,6.5-21.7
		c1.8-2.8,3.9-5.4,5.9-8.1c3,0,6,0,9,0c6.3,4.8,12.3,9.8,18.8,14.2c12.3,8.3,24.9,16.3,37.3,24.3c20.8,13.5,39.3,29.7,55.5,48.3
		c18.9,21.8,34.4,45.9,46.1,72.4c11.6,26.1,19,53.3,22.4,81.7c0.8,6.9,1.4,13.9,2.1,20.8c0,7.8,0,15.5,0,23.2
		c-0.2,1.1-0.5,2.2-0.5,3.3c-1.2,24.8-5.9,49.1-13.8,72.6c-10.8,31.9-26.9,61-48.5,86.8c-25.8,30.8-56.7,55.3-93.2,72.6
		c-21,9.9-42.8,17.3-65.6,21.4c-6.6,1.2-13.2,2.4-19.8,3.6c-21,0-42,0-63,0c-6.5-1.1-13-2-19.5-3.3c-36.4-7.2-70.2-20.7-101-41.6
		c-26.5-17.9-49.3-39.7-68.2-65.5c-20.5-28-35.6-58.6-43.8-92.4c-3.3-13.8-5.1-27.9-7.6-41.9c-0.6-3.4-0.9-6.9-1.3-10.3
		c0-10.8,0-21.5,0-32.2c0.2-1.1,0.6-2.1,0.7-3.2C1.4,239.3,4,224.1,7.5,209c6-26,15.7-50.5,28.7-73.7c9.5-16.9,20.5-32.8,33.3-47.4
		c16.2-18.7,34.5-35,55.2-48.6c11.5-7.5,23-15,34.3-22.7c7.7-5.3,15-11,22.5-16.6C183,0,184.5,0,186,0z"/>
	<path class="st0" d="M481.5,334.7c-0.3,26.8-5.6,52.6-16,77.3c-15,35.8-38.1,65.5-69.5,88.4c-30.3,22-64.1,35.2-101.5,39.1
		c-30.5,3.2-60.1,0-89-9.9c-33.8-11.6-62.8-30.7-87-57.2c-20.5-22.5-35.4-48.3-44.7-77.2c-9.4-29.3-11.8-59.3-8-90
		c3.1-25.9,10.9-50.3,22.6-73.3c13.3-26.1,31.2-48.7,53.9-67.4c11.6-9.5,23.3-18.8,34.9-28.2c3.7-3,6.9-6.5,10.5-9.6
		c4.7-4.2,6.9-4.3,11.6-0.1c8.9,7.9,12.1,18.6,13.7,29.9c3.1,21.3-7.1,36.9-21.9,50.2c-9.3,8.3-19.1,16.1-29,23.7
		c-13.2,10.2-24.1,22.4-33.4,36.2c-13.4,19.9-22.5,41.7-26.8,65.4c-4.7,25.7-4,51.2,2.9,76.4c10.2,37.6,30.6,68.6,61.3,92.6
		c23,17.9,48.9,29.6,77.7,34.3c30.8,5.1,61,2.4,90.3-8.8c38.1-14.6,67.6-39.5,88.5-74.6c18.8-31.7,26.6-66.1,23.6-102.7
		c-2.7-32.7-14.2-62.3-33.6-88.9c-11.4-15.6-26-27.4-40.9-39.2c-10.1-7.9-19.7-16.5-28.6-25.8c-13-13.6-16.5-30.2-11.6-48.3
		c1.5-5.7,4.2-11.2,6.8-16.5c1.2-2.5,3.4-4.7,5.6-6.5c4.6-3.9,6.4-3.8,11,0.2c10.9,9.4,21.3,19.3,32.8,27.9
		c12.6,9.5,24.9,19.3,35.6,30.9c25.2,27.4,42.3,59.2,51.7,95.1C479.5,296.6,481.7,315.5,481.5,334.7z"/>
	<path class="st0" d="M279,229.8c36.9,0.9,72.8,16.4,101.8,47c20.8,21.9,33.8,48.1,39.1,77.9c6.4,35.8,1.1,70-16.2,102
		c-14.7,27.1-35.8,48.2-63.5,62.3c-39,19.8-79.3,22-120.1,6.8c-30.5-11.4-54.6-31.2-72.3-58.7c-16.1-25.1-24.5-52.5-24.9-82.4
		c-0.4-28.4,6.5-54.9,20.6-79.5c13.5-23.6,32.2-42.2,55.7-55.8C222.3,236.1,247.2,229.6,279,229.8z M272.5,531.9
		c65.5,0.6,120.6-53.4,120.1-120.5c-0.5-66.7-54-119.1-119.8-119.3c-66.8-0.1-122.1,55.4-119.9,124.1
		C154.9,479.6,207.4,532.1,272.5,531.9z"/>
	<path class="st0" d="M237.7,131.8c-1.1-20.2,18.5-36.1,36.8-35.2c18.1,0.9,34.3,14.9,33.7,36.9c-0.5,18.2-16.8,33.6-36,33.4
		C253,166.8,237.5,150.9,237.7,131.8z"/>
	<path class="st0" d="M297.3,45.4c-0.2,14.8-10.4,25.4-24.3,25.2c-13.6-0.1-24.1-12.1-24-27.2c0.1-12,11-21.7,24.1-21.6
		C286.8,21.9,297.5,32.3,297.3,45.4z"/>
	<path class="st0" d="M273.4,341.1c51.9-0.1,95.4,43.1,93.5,97.7c-1.7,49.5-42.9,91.1-95.1,90.6c-52-0.5-94.2-43.9-93.3-95.6
		C179.4,382.2,222.2,340.4,273.4,341.1z M340.5,458.7c0.7-36.1-30-67.3-66.6-67.9c-37.4-0.6-68.7,29.6-68.9,67.1
		c-0.2,37.3,29.4,67.6,66.4,68.4C309.1,527.2,339.8,497.1,340.5,458.7z"/>
</g>
</svg>
